<?xml version="1.0" encoding="UTF-8"?>
<svg version="1.1" xmlns="http://www.w3.org/2000/svg" width="64" height="64">
<path d="M0 0 C1.875 1.375 1.875 1.375 3 3 C3 3.66 3 4.32 3 5 C4.0828125 5.12375 4.0828125 5.12375 5.1875 5.25 C8.71943208 6.19184856 10.41374057 7.41374057 13 10 C16.28297969 16.56595938 17.16564358 22.1869192 17.5 29.4375 C17.71373753 34.04868926 17.92411324 38.49024135 19 43 C20.423125 43.1546875 20.423125 43.1546875 21.875 43.3125 C25 44 25 44 27 47 C26.55555556 52.44444444 26.55555556 52.44444444 24 55 C21.0906442 55.14517744 18.280054 55.18630796 15.375 55.125 C14.57320312 55.11597656 13.77140625 55.10695312 12.9453125 55.09765625 C10.96341477 55.07406223 8.98167019 55.03819065 7 55 C6.86464844 55.77730469 6.72929688 56.55460937 6.58984375 57.35546875 C5.80021226 60.89573707 5.04809542 61.99271765 2 64 C-1.44804424 64.6290351 -4.55494414 64.65779384 -8 64 C-11.34625024 61.47323961 -12.67977847 59.96066458 -14 56 C-18.68234653 55.01424284 -22.9840546 55.0099199 -27.73046875 55.2578125 C-30 55 -30 55 -31.79296875 53.70703125 C-33 52 -33 52 -33.125 48.5625 C-32 45 -32 45 -30.3984375 43.796875 C-28.59927355 42.86397517 -26.7996501 41.93196166 -25 41 C-23.7797819 37.75903318 -23.83590614 34.44890474 -23.7097168 31.00878906 C-23.37202162 22.00488194 -23.00351154 13.61442757 -16 7 C-12.25 5.6875 -12.25 5.6875 -9 5 C-8.87625 4.360625 -8.7525 3.72125 -8.625 3.0625 C-8.315625 2.0415625 -8.315625 2.0415625 -8 1 C-5.20129973 -0.39935013 -3.09501208 -0.25265405 0 0 Z " fill="#F5D05D" transform="translate(35,0)"/>
<path d="M0 0 C1.875 1.375 1.875 1.375 3 3 C3 3.66 3 4.32 3 5 C4.0828125 5.12375 4.0828125 5.12375 5.1875 5.25 C9.83310434 6.48882782 12.37592538 9.06388807 15 13 C15 13.99 15 14.98 15 16 C12 15 12 15 10.125 12.5625 C7.11886608 8.93745616 4.49312918 8.14229078 -0.15625 7.69921875 C-1.2596875 7.69535156 -2.363125 7.69148437 -3.5 7.6875 C-4.6034375 7.67074219 -5.706875 7.65398438 -6.84375 7.63671875 C-10.32747631 8.0376922 -12.1627438 8.99426649 -15 11 C-15.8353125 11.5878125 -15.8353125 11.5878125 -16.6875 12.1875 C-21.0728791 18.24349971 -20.38126819 27.23434106 -20.56640625 34.37304688 C-20.59605469 35.18451172 -20.62570313 35.99597656 -20.65625 36.83203125 C-20.67494141 37.56139893 -20.69363281 38.2907666 -20.71289062 39.04223633 C-21 41 -21 41 -23 44 C-9.8 44 3.4 44 17 44 C16.34 43.01 15.68 42.02 15 41 C14.68115234 38.45629883 14.68115234 38.45629883 14.5859375 35.45703125 C14.52792969 33.84731445 14.52792969 33.84731445 14.46875 32.20507812 C14.4378125 31.08552734 14.406875 29.96597656 14.375 28.8125 C14.31699219 27.11577148 14.31699219 27.11577148 14.2578125 25.38476562 C14.16347467 22.5900075 14.07788348 19.79525722 14 17 C14.66 17 15.32 17 16 17 C17.1319178 21.11580434 17.30425128 25.19265272 17.5 29.4375 C17.71373753 34.04868926 17.92411324 38.49024135 19 43 C20.423125 43.1546875 20.423125 43.1546875 21.875 43.3125 C25 44 25 44 27 47 C26.55555556 52.44444444 26.55555556 52.44444444 24 55 C21.0906442 55.14517744 18.280054 55.18630796 15.375 55.125 C14.57320312 55.11597656 13.77140625 55.10695312 12.9453125 55.09765625 C10.96341477 55.07406223 8.98167019 55.03819065 7 55 C6.86464844 55.77730469 6.72929688 56.55460937 6.58984375 57.35546875 C5.80021226 60.89573707 5.04809542 61.99271765 2 64 C-1.44804424 64.6290351 -4.55494414 64.65779384 -8 64 C-11.34625024 61.47323961 -12.67977847 59.96066458 -14 56 C-18.68234653 55.01424284 -22.9840546 55.0099199 -27.73046875 55.2578125 C-30 55 -30 55 -31.79296875 53.70703125 C-33 52 -33 52 -33.125 48.5625 C-32 45 -32 45 -30.3984375 43.796875 C-28.59927355 42.86397517 -26.7996501 41.93196166 -25 41 C-23.7797819 37.75903318 -23.83590614 34.44890474 -23.7097168 31.00878906 C-23.37202162 22.00488194 -23.00351154 13.61442757 -16 7 C-12.25 5.6875 -12.25 5.6875 -9 5 C-8.87625 4.360625 -8.7525 3.72125 -8.625 3.0625 C-8.315625 2.0415625 -8.315625 2.0415625 -8 1 C-5.20129973 -0.39935013 -3.09501208 -0.25265405 0 0 Z " fill="#0E0A03" transform="translate(35,0)"/>
<path d="M0 0 C1.49164673 -0.00945648 1.49164673 -0.00945648 3.01342773 -0.019104 C4.09052002 -0.01505554 5.1676123 -0.01100708 6.27734375 -0.00683594 C7.37957275 -0.00874939 8.48180176 -0.01066284 9.61743164 -0.01263428 C11.95101143 -0.01399706 14.28459878 -0.01029416 16.61816406 -0.00195312 C20.20004222 0.00874485 23.78141878 -0.00184552 27.36328125 -0.01464844 C29.6263032 -0.01332686 31.88932483 -0.0107645 34.15234375 -0.00683594 C35.76798218 -0.01290863 35.76798218 -0.01290863 37.41625977 -0.019104 C38.41069092 -0.01279968 39.40512207 -0.00649536 40.4296875 0 C41.3074585 0.00159119 42.18522949 0.00318237 43.08959961 0.00482178 C45.21484375 0.25878906 45.21484375 0.25878906 47.21484375 2.25878906 C47.33984375 4.88378906 47.33984375 4.88378906 47.21484375 7.25878906 C43.8048805 8.96377069 39.90502408 8.52563059 36.1484375 8.61035156 C35.24037857 8.63350433 34.33231964 8.6566571 33.39674377 8.68051147 C31.46922481 8.72820347 29.54164356 8.77343106 27.61401367 8.81640625 C24.68838032 8.88296917 21.76320934 8.96096972 18.83789062 9.04003906 C16.96225623 9.08500946 15.08660541 9.12930125 13.2109375 9.17285156 C12.34496445 9.19674957 11.47899139 9.22064758 10.58677673 9.24526978 C5.03228264 9.3576512 -0.28159349 9.05247044 -5.78515625 8.25878906 C-6.78515625 7.25878906 -6.78515625 7.25878906 -6.97265625 4.82128906 C-6.62347798 0.04918604 -4.14958602 0.0075222 0 0 Z " fill="#F1CD5D" transform="translate(11.78515625,44.7412109375)"/>
<path d="M0 0 C0.66 0.33 1.32 0.66 2 1 C1.25130208 2.62760417 0.50260417 4.25520833 -0.24609375 5.8828125 C-2.25591953 11.52698644 -2.18273075 17.33612667 -2.1875 23.25 C-2.19974609 24.0646875 -2.21199219 24.879375 -2.22460938 25.71875 C-2.22981239 27.81383174 -2.1229057 29.90851996 -2 32 C-0.16044022 34.26839977 -0.16044022 34.26839977 2.61376953 34.22705078 C3.69255371 34.21657715 4.77133789 34.20610352 5.8828125 34.1953125 C7.04941406 34.18886719 8.21601562 34.18242188 9.41796875 34.17578125 C10.64128906 34.15902344 11.86460938 34.14226563 13.125 34.125 C14.97158203 34.11146484 14.97158203 34.11146484 16.85546875 34.09765625 C19.90383815 34.07402548 22.95182382 34.04108054 26 34 C26.33 34.99 26.66 35.98 27 37 C13.8 37 0.6 37 -13 37 C-12.67 36.01 -12.34 35.02 -12 34 C-11.88833716 32.62512964 -11.82256149 31.24617804 -11.7890625 29.8671875 C-11.76070312 29.06023438 -11.73234375 28.25328125 -11.703125 27.421875 C-11.65176682 25.74759822 -11.60729229 24.07309355 -11.5703125 22.3984375 C-11.29595818 15.17377376 -10.217175 8.66061 -5.5 3 C-3 1 -3 1 0 0 Z " fill="#D48412" transform="translate(25,7)"/>
<path d="M0 0 C1.875 1.375 1.875 1.375 3 3 C3 3.66 3 4.32 3 5 C4.0828125 5.12375 4.0828125 5.12375 5.1875 5.25 C9.83310434 6.48882782 12.37592538 9.06388807 15 13 C15 13.99 15 14.98 15 16 C12 15 12 15 10.125 12.5625 C7.11886608 8.93745616 4.49312918 8.14229078 -0.15625 7.69921875 C-1.2596875 7.69535156 -2.363125 7.69148437 -3.5 7.6875 C-4.6034375 7.67074219 -5.706875 7.65398438 -6.84375 7.63671875 C-10.32747631 8.0376922 -12.1627438 8.99426649 -15 11 C-15.8353125 11.5878125 -15.8353125 11.5878125 -16.6875 12.1875 C-21.0728791 18.24349971 -20.38126819 27.23434106 -20.56640625 34.37304688 C-20.59605469 35.18451172 -20.62570313 35.99597656 -20.65625 36.83203125 C-20.67494141 37.56139893 -20.69363281 38.2907666 -20.71289062 39.04223633 C-21 41 -21 41 -23 44 C-10.13 44 2.74 44 16 44 C16 44.33 16 44.66 16 45 C15.45098526 45.01030746 14.90197052 45.02061493 14.33631897 45.03123474 C8.64278719 45.13907947 2.94942079 45.25369449 -2.74389648 45.37231445 C-4.87114007 45.41573423 -6.9984201 45.45740393 -9.12573242 45.49731445 C-12.17638151 45.55484707 -15.22684589 45.61858967 -18.27734375 45.68359375 C-19.23462875 45.70030624 -20.19191376 45.71701874 -21.1782074 45.73423767 C-22.49946373 45.7641555 -22.49946373 45.7641555 -23.84741211 45.79467773 C-24.62684677 45.81022202 -25.40628143 45.8257663 -26.20933533 45.84178162 C-28.02293353 45.80889119 -28.02293353 45.80889119 -29 47 C-29.04063832 48.66617115 -29.042721 50.33388095 -29 52 C-26.03 52.33 -23.06 52.66 -20 53 C-20 53.66 -20 54.32 -20 55 C-21.60332791 55.08121924 -23.20784026 55.13929134 -24.8125 55.1875 C-26.15248047 55.23970703 -26.15248047 55.23970703 -27.51953125 55.29296875 C-30 55 -30 55 -31.81640625 53.703125 C-33 52 -33 52 -33.125 48.5625 C-32 45 -32 45 -30.3984375 43.796875 C-28.59927355 42.86397517 -26.7996501 41.93196166 -25 41 C-23.7797819 37.75903318 -23.83590614 34.44890474 -23.7097168 31.00878906 C-23.37202162 22.00488194 -23.00351154 13.61442757 -16 7 C-12.25 5.6875 -12.25 5.6875 -9 5 C-8.87625 4.360625 -8.7525 3.72125 -8.625 3.0625 C-8.315625 2.0415625 -8.315625 2.0415625 -8 1 C-5.20129973 -0.39935013 -3.09501208 -0.25265405 0 0 Z " fill="#080500" transform="translate(35,0)"/>
<path d="M0 0 C1.32570511 0.00666183 1.32570511 0.00666183 2.67819214 0.01345825 C3.67907867 0.01360931 4.67996521 0.01376038 5.71118164 0.01391602 C7.33623123 0.02939987 7.33623123 0.02939987 8.99411011 0.04519653 C10.65456863 0.04944138 10.65456863 0.04944138 12.34857178 0.05377197 C15.89458898 0.06499384 19.44035636 0.09010213 22.98629761 0.11550903 C25.38603355 0.12553624 27.78577344 0.13466253 30.18551636 0.14285278 C36.07752911 0.16493971 41.96939552 0.19843697 47.86129761 0.24050903 C47.86129761 0.57050903 47.86129761 0.90050903 47.86129761 1.24050903 C34.99129761 1.57050903 22.12129761 1.90050903 8.86129761 2.24050903 C8.86129761 4.22050903 8.86129761 6.20050903 8.86129761 8.24050903 C5.80319585 9.25987629 4.36328554 9.24237729 1.23629761 8.86550903 C0.43965698 8.77527466 -0.35698364 8.68504028 -1.17776489 8.59207153 C-3.13870239 8.24050903 -3.13870239 8.24050903 -4.13870239 7.24050903 C-4.32620239 4.80300903 -4.32620239 4.80300903 -4.13870239 2.24050903 C-2.13870239 0.24050903 -2.13870239 0.24050903 0 0 Z " fill="#B97B1A" transform="translate(9.138702392578125,44.759490966796875)"/>
<path d="M0 0 C0.33 0 0.66 0 1 0 C0.67 2.31 0.34 4.62 0 7 C12.87 7 25.74 7 39 7 C39 7.33 39 7.66 39 8 C38.45098526 8.01030746 37.90197052 8.02061493 37.33631897 8.03123474 C31.64278719 8.13907947 25.94942079 8.25369449 20.25610352 8.37231445 C18.12885993 8.41573423 16.0015799 8.45740393 13.87426758 8.49731445 C10.82361849 8.55484707 7.77315411 8.61858967 4.72265625 8.68359375 C3.76537125 8.70030624 2.80808624 8.71701874 1.8217926 8.73423767 C0.94095505 8.75418289 0.06011749 8.77412811 -0.84741211 8.79467773 C-2.0165641 8.81799416 -2.0165641 8.81799416 -3.20933533 8.84178162 C-5.02293353 8.80889119 -5.02293353 8.80889119 -6 10 C-6.04063832 11.66617115 -6.042721 13.33388095 -6 15 C-3.03 15.33 -0.06 15.66 3 16 C3 16.66 3 17.32 3 18 C1.39667209 18.08121924 -0.20784026 18.13929134 -1.8125 18.1875 C-3.15248047 18.23970703 -3.15248047 18.23970703 -4.51953125 18.29296875 C-7 18 -7 18 -8.81640625 16.703125 C-10 15 -10 15 -10.125 11.5625 C-8.92230688 7.75397179 -8.81622473 7.52427168 -5.5625 5.8125 C-4.386875 5.214375 -3.21125 4.61625 -2 4 C-0.5337314 1.91548164 -0.5337314 1.91548164 0 0 Z " fill="#040200" transform="translate(12,37)"/>
<path d="M0 0 C7.92 0 15.84 0 24 0 C24 0.33 24 0.66 24 1 C18.39 1 12.78 1 7 1 C9.16666667 6.83333333 9.16666667 6.83333333 12 8 C14.87306228 8.50095023 14.87306228 8.50095023 18 8 C20.77122275 5.64573501 20.77122275 5.64573501 23 3 C23.66 2.67 24.32 2.34 25 2 C24.67788008 4.89907925 24.10951881 6.82381756 22.5625 9.3125 C18.56407915 11.94560641 14.63985896 11.88592776 10 11 C6.65374976 8.47323961 5.32022153 6.96066458 4 3 C1.98491642 2.26676204 1.98491642 2.26676204 0 2 C0 1.34 0 0.68 0 0 Z " fill="#030200" transform="translate(17,53)"/>
<path d="M0 0 C2.33944736 0.28730055 4.6739143 0.61936779 7 1 C7.33 2.32 7.66 3.64 8 5 C8.721875 5.0825 9.44375 5.165 10.1875 5.25 C14.83310434 6.48882782 17.37592538 9.06388807 20 13 C20 13.99 20 14.98 20 16 C17 15 17 15 15.125 12.5625 C11.21294566 7.84502271 6.59020804 7.6969528 0.79296875 7.1484375 C-0.09455078 7.07496094 -0.09455078 7.07496094 -1 7 C-1.04254356 5.00045254 -1.04080783 2.99958364 -1 1 C-0.67 0.67 -0.34 0.34 0 0 Z " fill="#2C1E06" transform="translate(30,0)"/>
<path d="M0 0 C5.28 0 10.56 0 16 0 C15 4 15 4 13.3125 5.75 C10.2203804 7.421416 8.47163403 7.56679739 5 7 C2.125 4.625 2.125 4.625 0 2 C0 1.34 0 0.68 0 0 Z " fill="#D98D1A" transform="translate(24,55)"/>
<path d="M0 0 C2.25 0.125 2.25 0.125 5 1 C9.56515916 6.83325892 10.1165806 10.88858363 10 18 C9.01 17.67 8.02 17.34 7 17 C6.4453125 15.14453125 6.4453125 15.14453125 6.125 12.8125 C5.21476892 7.88469723 3.36466174 5.63029293 0 2 C0 1.34 0 0.68 0 0 Z " fill="#000000" transform="translate(46,4)"/>
<path d="M0 0 C1.32 0 2.64 0 4 0 C2.8549686 2.48090136 1.61695097 4.52669241 0 6.75 C-2.34644688 10.56297618 -3.09804171 13.64053494 -4 18 C-4.66 18 -5.32 18 -6 18 C-6.45743356 11.5959301 -5.48834422 7.42348408 -2 2 C-1.34 1.34 -0.68 0.68 0 0 Z " fill="#000000" transform="translate(14,4)"/>
<path d="M0 0 C0.66 0 1.32 0 2 0 C2.78688445 2.77723925 3.11949924 5.22610077 3.09765625 8.109375 C3.09443359 8.86347656 3.09121094 9.61757813 3.08789062 10.39453125 C3.07951172 11.17183594 3.07113281 11.94914062 3.0625 12.75 C3.05798828 13.54277344 3.05347656 14.33554687 3.04882812 15.15234375 C3.03708565 17.10159508 3.01915146 19.05080738 3 21 C2.34 21 1.68 21 1 21 C0.67 14.07 0.34 7.14 0 0 Z " fill="#030301" transform="translate(49,17)"/>
<path d="M0 0 C3.16115776 1.36983503 3.9927092 1.9890638 6 5 C6.39013716 6.9896995 6.73202649 8.99019869 7 11 C6.01 11.33 5.02 11.66 4 12 C3.32645501 10.56570999 2.66140299 9.12742943 2 7.6875 C1.62875 6.88699219 1.2575 6.08648437 0.875 5.26171875 C0 3 0 3 0 0 Z " fill="#000000" transform="translate(54,4)"/>
<path d="M0 0 C-0.66010476 2.84550012 -1.51724966 5.52325999 -2.5625 8.25 C-2.83191406 8.95640625 -3.10132813 9.6628125 -3.37890625 10.390625 C-3.58386719 10.92171875 -3.78882813 11.4528125 -4 12 C-4.99 12 -5.98 12 -7 12 C-6.74337755 10.55989519 -6.46909179 9.1229313 -6.1875 7.6875 C-6.03667969 6.88699219 -5.88585937 6.08648437 -5.73046875 5.26171875 C-4.72356577 2.14408867 -3.45649214 0 0 0 Z " fill="#000000" transform="translate(10,4)"/>
<path d="M0 0 C3.3 0 6.6 0 10 0 C9.34 1.32 8.68 2.64 8 4 C2.25 4.125 2.25 4.125 0 3 C0 2.01 0 1.02 0 0 Z " fill="#EEC959" transform="translate(29,57)"/>
</svg>
